<svg width="22" height="23" viewBox="0 0 22 23" fill="none" xmlns="http://www.w3.org/2000/svg">
<g clip-path="url(#clip0_1_30)">
<path d="M21.9149 9.09285C21.7713 8.65721 21.3771 8.3478 20.9109 8.3066L14.5772 7.74277L12.0726 1.99565C11.888 1.57446 11.4674 1.30182 11.0001 1.30182C10.5328 1.30182 10.1123 1.57446 9.92759 1.99663L7.42307 7.74277L1.08836 8.3066C0.622916 8.34879 0.229802 8.65721 0.0853134 9.09285C-0.0591748 9.52848 0.0742633 10.0063 0.426359 10.3075L5.21389 14.4239L3.80216 20.5206C3.69886 20.9689 3.87633 21.4323 4.25571 21.7011C4.45964 21.8456 4.69822 21.9191 4.93881 21.9191C5.14625 21.9191 5.35202 21.8643 5.53669 21.756L11.0001 18.5547L16.4615 21.756C16.8612 21.9917 17.365 21.9702 17.7435 21.7011C18.1231 21.4314 18.3004 20.9679 18.1971 20.5206L16.7853 14.4239L21.5729 10.3083C21.925 10.0063 22.0594 9.5293 21.9149 9.09285Z" fill="#FF7836"/>
</g>
<defs>
<clipPath id="clip0_1_30">
<rect width="21.9442" height="21.5139" fill="white" transform="translate(0.0278893 0.840637)"/>
</clipPath>
</defs>
</svg>
